<?xml version="1.0" encoding="UTF-8"?>
<svg xmlns="http://www.w3.org/2000/svg" xmlns:xlink="http://www.w3.org/1999/xlink" width="25px" height="25px" viewBox="0 0 25 25" version="1.1">
<defs>
<linearGradient id="linear0" gradientUnits="userSpaceOnUse" x1="42519.285156" y1="-7078.789062" x2="42575.335938" y2="-6966.930664" gradientTransform="matrix(0.143378,0,0,0.143378,-6083.600203,1021.481201)">
<stop offset="0" style="stop-color:rgb(100%,100%,100%);stop-opacity:0;"/>
<stop offset="0.495173" style="stop-color:rgb(100%,100%,100%);stop-opacity:0.301961;"/>
<stop offset="1" style="stop-color:rgb(100%,100%,100%);stop-opacity:0.301961;"/>
</linearGradient>
</defs>
<g id="surface1">
<path style=" stroke:none;fill-rule:nonzero;fill:url(#linear0);" d="M 12.714844 6.542969 C 12.679688 6.542969 12.652344 6.550781 12.628906 6.570312 C 12.609375 6.589844 12.601562 6.613281 12.605469 6.636719 L 17.421875 24.6875 C 19.753906 23.683594 21.722656 21.996094 23.070312 19.847656 L 12.808594 6.582031 C 12.789062 6.554688 12.753906 6.542969 12.714844 6.542969 Z M 12.714844 6.542969 "/>
<path style=" stroke:none;fill-rule:nonzero;fill:rgb(100%,100%,100%);fill-opacity:1;" d="M 12.476562 0.707031 C 5.574219 0.707031 -0.0234375 6.304688 -0.0234375 13.207031 C -0.0234375 15.554688 0.640625 17.855469 1.886719 19.847656 L 12.308594 6.371094 C 12.382812 6.273438 12.570312 6.273438 12.648438 6.371094 L 23.070312 19.847656 C 24.316406 17.855469 24.976562 15.554688 24.976562 13.207031 C 24.976562 6.304688 19.382812 0.707031 12.476562 0.707031 Z M 12.476562 0.707031 "/>
</g>
</svg>
